<svg width="127" height="46" viewBox="0 0 127 46" fill="none" xmlns="http://www.w3.org/2000/svg">
<path d="M32.5 27H10.5C9.375 27 8.5 26.125 8.5 25C8.5 23.9375 9.375 23 10.5 23H32.5C33.5625 23 34.5 23.9375 34.5 25C34.5 26.125 33.5625 27 32.5 27Z" fill="#00B286"/>
<path d="M74.5 27H52.5C51.375 27 50.5 26.125 50.5 25C50.5 23.9375 51.375 23 52.5 23H74.5C75.5625 23 76.5 23.9375 76.5 25C76.5 26.125 75.5625 27 74.5 27Z" fill="#868E96"/>
<path d="M116.5 27H94.5C93.375 27 92.5 26.125 92.5 25C92.5 23.9375 93.375 23 94.5 23H116.5C117.562 23 118.5 23.9375 118.5 25C118.5 26.125 117.562 27 116.5 27Z" fill="#868E96"/>
</svg>
